<?xml version="1.0" encoding="UTF-8"?>
<svg xmlns="http://www.w3.org/2000/svg" xmlns:xlink="http://www.w3.org/1999/xlink" width="15pt" height="16pt" viewBox="0 0 15 16" version="1.1">
<g id="surface1">
<path style=" stroke:none;fill-rule:nonzero;fill:rgb(0%,0%,0%);fill-opacity:1;" d="M 3.316406 14 L 0.242188 14 L 0.242188 4.652344 L 3.316406 4.652344 Z M 1.777344 3.378906 C 0.792969 3.378906 0 2.609375 0 1.679688 C 0 0.753906 0.792969 0 1.777344 0 C 2.761719 0 3.554688 0.753906 3.554688 1.679688 C 3.554688 2.609375 2.761719 3.378906 1.777344 3.378906 Z M 14.796875 14 L 11.738281 14 L 11.738281 9.449219 C 11.738281 8.367188 11.714844 6.976562 10.140625 6.976562 C 8.546875 6.976562 8.300781 8.152344 8.300781 9.371094 L 8.300781 14 L 5.234375 14 L 5.234375 4.652344 L 8.179688 4.652344 L 8.179688 5.929688 L 8.222656 5.929688 C 8.632812 5.195312 9.632812 4.417969 11.125 4.417969 C 14.230469 4.417969 14.800781 6.351562 14.800781 8.867188 L 14.800781 14 Z M 14.796875 14 "/>
</g>
</svg>
